<mxfile host="app.diagrams.net" agent="Mozilla/5.0 (X11; Linux x86_64) AppleWebKit/537.36 (KHTML, like Gecko) Chrome/129.0.0.0 Safari/537.36" version="24.8.1">
  <diagram name="Página-1" id="yyB9Nb3cehIWXaKLEjLL">
    <mxGraphModel dx="1674" dy="826" grid="1" gridSize="10" guides="1" tooltips="1" connect="1" arrows="1" fold="1" page="1" pageScale="1" pageWidth="827" pageHeight="1169" math="0" shadow="0">
      <root>
        <mxCell id="0" />
        <mxCell id="1" parent="0" />
        <mxCell id="0T8ld3JZIWsMlSCex7S9-2" value="&lt;h1 style=&quot;margin-top: 0px;&quot;&gt;Estudo de Caso&lt;/h1&gt;&lt;p&gt;Especificação do Caso de Uso&lt;br&gt;&lt;/p&gt;&lt;p&gt;Nome: Dar entrada de Produto&lt;/p&gt;&lt;p&gt;Objetivo: Inserir produtos no estoque de brinde&lt;/p&gt;&lt;p&gt;Ator: Recepção de produtos&lt;/p&gt;" style="text;html=1;whiteSpace=wrap;overflow=hidden;rounded=0;" parent="1" vertex="1">
          <mxGeometry x="50" y="20" width="250" height="160" as="geometry" />
        </mxCell>
        <mxCell id="0T8ld3JZIWsMlSCex7S9-7" value="Cenário Principal:&lt;div&gt;&lt;br&gt;&lt;/div&gt;&lt;div&gt;1. O sistema exibe o formulário&amp;nbsp; para dar entrada no produto, contendo as seguintes informações:&lt;/div&gt;&lt;div&gt;&lt;br&gt;&lt;/div&gt;&lt;div&gt;1.1 Opção Selecionar (obrigatório, por padrão a entrada possui chave de acesso)&lt;/div&gt;&lt;div&gt;1.2&amp;nbsp;&lt;/div&gt;" style="text;spacingTop=-5;whiteSpace=wrap;html=1;align=left;fontSize=12;fontFamily=Helvetica;fillColor=none;strokeColor=none;" parent="1" vertex="1">
          <mxGeometry x="50" y="180" width="250" height="470" as="geometry" />
        </mxCell>
      </root>
    </mxGraphModel>
  </diagram>
</mxfile>
